<svg width="300" height="301" viewBox="0 0 300 301" fill="none" xmlns="http://www.w3.org/2000/svg">
<path fill-rule="evenodd" clip-rule="evenodd" d="M128.734 180.171C126.77 180.171 125.169 181.76 125.169 183.736V187.289C125.144 193.218 128.821 198.546 134.375 200.623C139.941 202.699 146.208 201.098 150.073 196.607C153.951 201.098 160.218 202.699 165.771 200.623C171.338 198.546 175.003 193.218 174.978 187.289V183.736C174.978 181.76 173.389 180.171 171.425 180.171C169.462 180.171 167.86 181.76 167.86 183.736V187.289C167.86 191.216 164.683 194.406 160.756 194.406C156.815 194.406 153.638 191.216 153.638 187.289V175.943C154.889 175.481 156.015 174.743 156.941 173.779L162.269 168.088C164.283 166.024 164.858 162.947 163.72 160.295C162.194 157.118 158.929 155.142 155.414 155.267H144.745C141.217 155.142 137.965 157.118 136.439 160.295C135.301 162.947 135.864 166.024 137.89 168.088L143.219 173.779C144.144 174.743 145.27 175.481 146.521 175.943V187.289C146.521 191.216 143.331 194.406 139.404 194.406C135.476 194.406 132.286 191.216 132.286 187.289V183.736C132.286 181.76 130.698 180.171 128.734 180.171ZM142.956 163.147C143.006 162.972 143.531 162.384 144.745 162.384H155.414C156.628 162.384 157.153 162.972 157.078 163.222L151.749 168.914C150.749 169.639 149.41 169.639 148.41 168.914L142.956 163.147Z" fill="black"/>
<path fill-rule="evenodd" clip-rule="evenodd" d="M105.13 143.134C111.46 140.657 116.501 140.357 120.116 142.27C122.63 143.721 124.481 146.111 125.257 148.925C125.707 150.814 127.583 151.99 129.472 151.577C131.373 151.164 132.587 149.313 132.211 147.411C130.998 142.608 127.871 138.493 123.555 136.041C118.027 133.064 110.947 133.214 102.529 136.504C100.702 137.217 99.8018 139.281 100.515 141.107C101.228 142.946 103.292 143.847 105.13 143.134Z" fill="black"/>
<path fill-rule="evenodd" clip-rule="evenodd" d="M167.122 151.639C168.048 151.827 169.011 151.652 169.799 151.139C170.587 150.626 171.15 149.813 171.35 148.9C172.101 146.123 173.927 143.759 176.416 142.308C180.031 140.357 185.097 140.644 191.476 143.121C193.303 143.847 195.366 142.933 196.079 141.107C196.805 139.281 195.892 137.217 194.066 136.504C185.647 133.214 178.58 133.064 173.039 136.041C168.723 138.493 165.596 142.596 164.383 147.411C164.195 148.337 164.37 149.3 164.883 150.088C165.396 150.876 166.197 151.439 167.122 151.639Z" fill="black"/>
<path fill-rule="evenodd" clip-rule="evenodd" d="M206.224 81.4793C201.108 83.7558 189.863 90.8857 184.034 94.976C162.457 85.2944 137.778 85.2819 116.2 94.9384C110.347 90.8482 105.055 87.5084 100.277 84.8191C95.649 82.2798 84.1913 77.414 78.9252 77.0013C75.9607 76.9512 73.1838 78.3897 71.4951 80.8289C63.6273 91.6737 72.746 123.545 75.0851 131.138C73.0212 134.578 71.2199 138.18 69.7064 141.895C65.6912 141.32 61.6384 141.045 57.5857 141.032C55.6094 141.032 54.0208 142.633 54.0208 144.597C54.0208 146.561 55.6094 148.15 57.5857 148.15C60.8129 148.162 64.0526 148.362 67.2673 148.762C65.5911 154.341 64.728 160.12 64.6905 165.937V165.974C61.4883 166.925 58.4363 168.313 55.6094 170.102C54.5336 170.802 53.9207 172.016 54.0083 173.292C54.0833 174.567 54.8338 175.706 55.9846 176.269C57.1354 176.832 58.4988 176.731 59.5495 176.018C61.3382 174.88 63.2645 173.955 65.2659 173.267C65.8913 177.582 67.1297 181.797 68.9434 185.763C62.3639 190.078 58.1611 197.22 57.5857 205.076C57.5857 216.046 68.4806 222.863 86.0425 222.863C93.9604 223.351 101.828 221.274 108.47 216.946C121.967 221.011 135.989 223.013 150.073 222.863C164.171 223 178.193 221.011 191.677 216.946C198.331 221.274 206.199 223.351 214.117 222.863C231.666 222.863 242.574 216.046 242.574 205.076C241.998 197.22 237.795 190.078 231.204 185.763C233.017 181.797 234.256 177.582 234.881 173.267C236.895 173.955 238.809 174.88 240.597 176.018C241.661 176.731 243.024 176.832 244.175 176.269C245.313 175.706 246.076 174.567 246.151 173.292C246.239 172.016 245.626 170.802 244.55 170.102C241.723 168.313 238.671 166.925 235.456 165.974V165.937C235.431 160.12 234.568 154.341 232.892 148.762C236.107 148.362 239.334 148.162 242.574 148.15C244.538 148.15 246.139 146.561 246.139 144.597C246.139 142.633 244.538 141.045 242.574 141.045C238.521 141.045 234.456 141.332 230.44 141.895C228.939 138.23 227.176 134.678 225.149 131.276C227.488 123.683 236.657 91.7238 228.752 80.8164C227.076 78.3897 224.286 76.9512 221.334 77.0013C216.043 77.4015 210.89 78.9401 206.224 81.4793ZM64.6905 205.076C64.6905 197.07 74.5472 187.289 86.0425 187.289C97.5378 187.289 107.382 197.07 107.382 205.076C107.382 210.254 102.604 213.231 96.3995 214.67C96.5997 213.857 96.7122 213.031 96.7122 212.193V205.076C96.7122 203.112 95.1237 201.523 93.1598 201.523C91.196 201.523 89.5949 203.112 89.5949 205.076V212.193C89.5949 214.157 88.0063 215.745 86.0425 215.745C84.0787 215.745 82.4776 214.157 82.4776 212.193V205.076C82.4776 203.112 80.889 201.523 78.9252 201.523C76.9613 201.523 75.3728 203.112 75.3728 205.076V212.193C75.3728 213.031 75.4853 213.857 75.6855 214.67C69.4813 213.231 64.6905 210.254 64.6905 205.076ZM235.456 205.076C235.456 210.254 230.678 213.231 224.474 214.67C224.674 213.857 224.774 213.031 224.787 212.193V205.076C224.787 203.112 223.198 201.523 221.234 201.523C219.27 201.523 217.669 203.112 217.669 205.076V212.193C217.669 214.157 216.081 215.745 214.117 215.745C212.153 215.745 210.552 214.157 210.552 212.193V205.076C210.552 203.112 208.963 201.523 207 201.523C205.036 201.523 203.447 203.112 203.447 205.076V212.193C203.447 213.031 203.56 213.857 203.76 214.67C197.556 213.231 192.765 210.254 192.765 205.076C192.765 197.07 202.622 187.289 214.117 187.289C225.612 187.289 235.456 197.07 235.456 205.076ZM82.34 130.513C75.8231 110.537 73.534 90.1352 77.249 85.0067C77.5993 84.4188 78.2497 84.0811 78.9252 84.1186C84.0036 84.6815 88.8944 86.3701 93.2349 89.0469C93.2599 89.072 93.2724 89.097 93.3099 89.122C93.4225 89.172 93.5476 89.2221 93.6602 89.2721C100.627 93.0497 107.344 97.2775 113.761 101.931C114.812 102.669 116.175 102.794 117.326 102.243C138.065 92.3367 162.157 92.3492 182.883 102.268C184.047 102.831 185.422 102.706 186.473 101.956C202.409 90.623 215.118 84.1186 221.334 84.1186C222.01 84.0811 222.648 84.4188 222.985 84.9942C226.725 90.1477 224.436 110.624 217.882 130.65C217.557 131.651 217.682 132.752 218.245 133.64C220.159 136.704 221.835 139.906 223.286 143.221C215.443 144.86 207.975 147.987 201.308 152.427C199.77 153.616 199.482 155.805 200.645 157.368C201.796 158.919 203.998 159.257 205.561 158.119C211.753 154.154 218.62 151.389 225.825 149.963C227.263 154.566 228.089 159.345 228.277 164.173C222.423 163.06 216.506 162.472 210.552 162.384C208.588 162.384 207 163.973 207 165.937C207 167.9 208.588 169.502 210.552 169.502C216.418 169.602 222.26 170.227 228.001 171.365C227.539 175.143 226.513 178.833 224.974 182.323C221.522 180.909 217.844 180.184 214.117 180.171C198.081 180.171 185.66 193.555 185.66 205.076C185.635 207.115 186.06 209.128 186.886 210.992C174.89 214.269 162.507 215.858 150.073 215.745C137.653 215.858 125.269 214.269 113.273 210.992C114.099 209.128 114.512 207.115 114.499 205.076C114.499 193.555 102.066 180.171 86.0425 180.171C82.315 180.184 78.625 180.909 75.1851 182.323C73.6466 178.833 72.6209 175.143 72.1456 171.365C77.8995 170.227 83.7409 169.602 89.5949 169.502C91.5587 169.502 93.1598 167.9 93.1598 165.937C93.1598 163.973 91.5587 162.384 89.5949 162.384C83.6534 162.472 77.7244 163.06 71.8829 164.173C72.0705 159.345 72.8961 154.566 74.3346 149.963C81.5395 151.389 88.4066 154.154 94.5858 158.119C96.1619 159.257 98.3509 158.919 99.5141 157.368C100.677 155.817 100.377 153.616 98.8512 152.427C92.1717 147.987 84.7166 144.86 76.8738 143.221C78.3248 139.856 80.0384 136.604 81.9772 133.502C82.5401 132.601 82.6652 131.513 82.34 130.513Z" fill="black"/>
</svg>
